<svg xmlns="http://www.w3.org/2000/svg" xmlns:xlink="http://www.w3.org/1999/xlink" version="1.1" x="0px" y="0px" viewBox="0 0 4000 5000" style="enable-background:new 0 0 4000 4000;" xml:space="preserve"><g><ellipse transform="matrix(0.1891 -0.982 0.982 0.1891 -406.543 3519.6528)" cx="1927.77" cy="2005.976" rx="73.062" ry="73.061"/><path d="M871.421,2225.914c-84.409-38.528-141.264-123.587-141.264-219.841c0-96.254,56.857-181.311,141.264-219.839   c-23.752-8.058-48.696-12.219-73.906-12.219c-127.959,0-232.06,104.103-232.06,232.06c0,127.958,104.101,232.06,232.06,232.06   C822.723,2238.132,847.667,2233.971,871.421,2225.914z"/><path d="M849.633,2598.116c0.536-0.53,1.09-1.033,1.689-1.511c0.585-0.472,1.196-0.897,1.825-1.305   c0.568-0.367,1.14-0.721,1.737-1.035c0.702-0.369,1.423-0.675,2.162-0.966c0.622-0.245,1.238-0.486,1.869-0.671   c0.723-0.212,1.46-0.354,2.206-0.492c0.664-0.122,1.32-0.245,1.988-0.304c0.262-0.023,0.511-0.103,0.773-0.119l119.298-6.558   c7.499-0.413,10.11-10.164,3.822-14.269l-194.756-127.128c-4.848-3.164-11.331-0.107-11.974,5.647l-25.782,231.142   c-0.832,7.463,8.354,11.65,13.441,6.127l80.944-87.885C849.109,2598.543,849.392,2598.357,849.633,2598.116z"/><ellipse cx="1938.067" cy="782.147" rx="105.873" ry="105.873"/><ellipse cx="1927.844" cy="3230.047" rx="105.875" ry="105.875"/><path d="M3197.213,1843.484c-8.622-1.385-17.259-2.074-25.826-2.074c-33.495,0-66.051,10.472-93.727,30.48   c-34.754,25.128-57.642,62.282-64.45,104.624c-6.806,42.343,3.283,84.801,28.408,119.555   c25.128,34.752,62.282,57.642,104.625,64.448c42.353,6.811,84.799-3.283,119.553-28.406   c34.754-25.128,57.643-62.284,64.448-104.625c6.808-42.341-3.279-84.801-28.405-119.555   C3276.713,1873.18,3239.556,1850.291,3197.213,1843.484z"/><path d="M3071.541,1556.522l25.78-231.14c0.832-7.465-8.354-11.65-13.441-6.125l-80.942,87.883   c-0.216,0.235-0.482,0.409-0.706,0.631c-0.536,0.534-1.098,1.031-1.691,1.513c-0.584,0.471-1.184,0.899-1.806,1.307   c-0.679,0.444-1.364,0.874-2.085,1.24c-0.302,0.155-0.599,0.312-0.91,0.45c-1.138,0.511-2.294,0.941-3.472,1.247   c-0.183,0.048-0.373,0.067-0.559,0.111c-1.05,0.243-2.104,0.398-3.16,0.484c-0.208,0.017-0.406,0.082-0.614,0.094l-119.298,6.558   c-7.499,0.413-10.112,10.164-3.823,14.269l194.754,127.125C3064.415,1565.334,3070.896,1562.277,3071.541,1556.522z"/><path d="M3208.098,1775.792c1.507,0.243,3.047,0.364,4.576,0.364c14.13,0,26.017-10.137,28.265-24.108l12.09-75.207   c2.506-15.599-8.146-30.335-23.744-32.845c-15.616-2.502-30.339,8.15-32.845,23.745l-12.086,75.207   c-1.215,7.558,0.583,15.138,5.07,21.338C3193.907,1770.489,3200.54,1774.573,3208.098,1775.792z"/><path d="M3366.679,1861.995c6.879,0,13.539-2.479,18.736-6.988l57.601-49.836c11.949-10.336,13.261-28.472,2.925-40.42   c-10.34-11.953-28.477-13.261-40.42-2.921l-57.601,49.84c-5.791,5.005-9.282,11.97-9.835,19.605   c-0.553,7.631,1.902,15.025,6.91,20.816C3350.439,1858.387,3358.342,1861.995,3366.679,1861.995z"/><path d="M3505.45,1968.296c-0.065,0-0.124,0-0.189,0l-76.217,1.15c-15.802,0.243-28.464,13.292-28.221,29.091   c0.233,15.561,13.081,28.217,29.078,28.217c0.004,0,0.004,0,0.01,0l76.161-1.15c7.658-0.117,14.809-3.206,20.137-8.698   c5.332-5.492,8.201-12.735,8.084-20.387C3534.052,1980.914,3521.131,1968.296,3505.45,1968.296z"/><path d="M3448.851,2190.536l-59.084-48.074c-5.938-4.834-13.401-7.078-21.019-6.278c-7.614,0.782-14.468,4.48-19.299,10.418   c-4.831,5.942-7.061,13.405-6.279,21.019s4.486,14.467,10.422,19.299l59.084,48.074c5.091,4.144,11.512,6.426,18.076,6.426   c8.672,0,16.779-3.855,22.241-10.57c4.831-5.938,7.061-13.401,6.279-21.015C3458.491,2202.221,3454.787,2195.368,3448.851,2190.536   z"/><path d="M3248.471,2249.75c-2.977-15.513-17.994-25.711-33.545-22.742c-7.518,1.443-14.026,5.726-18.323,12.064   c-4.295,6.336-5.864,13.967-4.421,21.481l14.359,74.809c2.588,13.477,14.411,23.257,28.118,23.257c1.819,0,3.652-0.172,5.427-0.518   c7.518-1.443,14.026-5.726,18.321-12.06c4.295-6.34,5.863-13.967,4.421-21.481L3248.471,2249.75z"/><path d="M2995.201,2318.734c4.26,2.372,9.075,3.625,13.927,3.625c10.401,0,19.999-5.634,25.055-14.709l37.084-66.533   c7.692-13.802,2.722-31.289-11.08-38.986c-13.823-7.7-31.299-2.709-38.986,11.084l-37.084,66.533   C2976.429,2293.549,2981.399,2311.038,2995.201,2318.734z"/><path d="M2859.692,2149.611c3.484,0,6.91-0.631,10.202-1.881l71.174-27.132c14.761-5.63,22.193-22.224,16.571-36.985   c-5.622-14.757-22.207-22.193-36.985-16.571l-71.178,27.132c-7.151,2.728-12.812,8.073-15.945,15.059   c-3.128,6.986-3.348,14.774-0.622,21.925C2837.114,2142.196,2847.879,2149.611,2859.692,2149.611z"/><path d="M2846.836,1919.619l71.96,24.969h0.004c3.038,1.054,6.202,1.586,9.395,1.586c12.199,0,23.075-7.744,27.073-19.268   c2.51-7.229,2.053-15.008-1.287-21.896c-3.34-6.887-9.161-12.065-16.391-14.572l-71.966-24.969   c-14.943-5.169-31.293,2.76-36.466,17.682c-2.51,7.233-2.053,15.008,1.287,21.895   C2833.788,1911.936,2839.607,1917.107,2846.836,1919.619z"/><path d="M3039.501,1809.398c5.159,0,10.233-1.404,14.678-4.057c13.565-8.111,18.002-25.738,9.9-39.301l-39.081-65.383   c-3.927-6.567-10.177-11.218-17.6-13.089c-7.421-1.863-15.125-0.731-21.701,3.189c-13.565,8.111-18.002,25.738-9.9,39.301   l39.081,65.383C3020.023,1804.047,3029.46,1809.398,3039.501,1809.398z"/><path d="M2933.711,1372.688c4.848,7.696,13.302,12.333,22.319,12.333c0.477,0,0.951-0.013,1.431-0.038l14.493-0.796   c6.866-0.377,13.314-3.418,17.971-8.479l3.501-3.803c8.046-8.733,9.282-21.856,3.003-31.921   c-103.839-166.298-232.213-300.458-381.559-398.761c-154.19-101.488-328.243-162.979-517.331-182.761l-4.266-0.446   c-5.529-0.58-10.342,3.759-10.338,9.318l0.011,19.501c0,8.595-1.041,17.211-3.103,25.608l-1.056,4.3   c-1.353,5.51,2.468,10.948,8.111,11.543l4.4,0.465C2441.248,865.697,2732.554,1053.792,2933.711,1372.688z"/><path d="M1794.939,766.612c0.863-5.972-4.065-11.189-10.078-10.667l-4.853,0.421c-237.657,20.659-459.188,108.882-640.644,255.12   c-178.034,143.485-315.565,340.856-397.728,570.788c-3.172,8.871-2.697,18.447,1.335,26.96   c4.033,8.517,11.136,14.952,20.006,18.118c3.834,1.37,7.826,2.066,11.87,2.066c14.864,0,28.213-9.408,33.212-23.408   C968.126,1158.087,1333,866.794,1784.094,826.806l4.408-0.39c5.651-0.501,9.561-5.873,8.301-11.406l-0.981-4.314   c-1.792-7.886-2.701-15.914-2.701-23.861c0-5.07,0.375-10.25,1.119-15.4L1794.939,766.612z"/><path d="M3124.968,2393.814c-8.071-14.74-21.835-22.807-36.686-21.537c-13.892,1.157-25.824,10.418-30.396,23.593   c-64.982,187.276-177.091,356.82-324.207,490.292c-145.87,132.345-323.646,227.115-514.111,274.068   c-14.376,3.543-29.047,6.872-43.596,9.883c-1.454,0.3-2.86,0.597-4.251,0.894v-240.862   c-154.58-18.457-278.726-57.71-327.998-100.826c-59.595-52.146-223.633-316.442-230.587-327.667   c-6.791-10.962-2.808-25.556,9.041-31.408c10.315-5.096,22.853-0.823,28.915,8.957c46.814,75.519,176.454,277.379,221.662,316.937   c63.159,55.261,324.71,118.671,607.185,96.386c51.237-4.042,95.026-40.68,108.958-91.169   c35.766-129.613,35.263-284.021,33.386-344.393c-0.976-31.414,19.484-59.443,49.758-68.163l116.8-33.643   c8.023-2.311,15.191-7.312,19.431-14.505c5.76-9.776,5.909-21.487,0.643-31.238l-174.728-323.338   c-9.215-17.047-13.039-36.212-11.067-55.422c2.893-28.148,7.748-79.88,7.748-110.064c0-201.086-70.252-372.174-203.158-494.768   c-128.6-118.619-312.028-183.945-516.496-183.945c-415.406,0-753.364,337.958-753.364,753.364   c0,194.333,73.78,378.825,207.753,519.49c81.575,85.65,126.501,200.371,126.501,323.028v377.226l0,0   c-14.788-5.71-30.161-12.033-45.649-18.774c-221.886-96.587-406.941-256.499-535.16-462.429   c-5.246-8.438-14.709-13.288-24.531-12.791l-13.439,0.735c-7.063,0.387-13.695,3.514-18.486,8.72l-3.055,3.319   c-8.232,8.939-9.542,22.388-3.181,32.715c142.234,230.606,349.801,406.017,600.197,507.232l2.282,0.91   c118.367,47.581,199.77,73.776,316.187,84.885h0.004c8.486,0.811,15.511-6.502,14.361-14.95v-0.002   c-0.679-4.964-1.02-9.873-1.02-14.585c0-8.232,0.972-16.546,2.894-24.699l3.474-14.73l-0.105-0.011   c16.318-50.531,69.935-101.17,140.824-98.662c86.681,3.068,123.35,57.427,136.554,100.474l3.05,12.899   c1.926,8.153,2.904,16.473,2.904,24.73c0,5.661-0.264,13.711-0.842,18.007l0,0c-1.196,8.846,6.533,16.311,15.331,14.809l0,0   c34.578-5.907,55.026-10.964,78.702-16.814c13.123-3.244,26.692-6.598,44.227-10.483l1.05-0.237   c208.805-46.458,403.92-146.57,564.249-289.521c161.561-144.051,283.847-328.247,353.638-532.679   c2.177-6.378,1.6-13.384-1.594-19.23L3124.968,2393.814z M1427.331,2066.643c9.953,7.009,12.341,20.762,5.332,30.718   c-4.293,6.095-11.115,9.355-18.044,9.355c-4.387,0-8.813-1.307-12.674-4.023l-94.892-66.822   c-9.682-6.816-15.461-17.954-15.461-29.795l0,0v-0.002c0-11.84,5.781-22.977,15.461-29.796l94.894-66.814   c9.952-7.011,23.706-4.622,30.716,5.334c7.009,9.955,4.622,23.708-5.332,30.716l-54.705,38.517h440.035   c8.98-46.946,46.051-84.015,92.994-92.994v-402.799l-55.021,78.134c-4.291,6.097-11.115,9.355-18.044,9.355   c-4.387,0-8.813-1.307-12.674-4.023c-9.955-7.009-12.343-20.76-5.334-30.715l83.316-118.321   c6.818-9.682,17.956-15.461,29.797-15.461c11.84,0,22.979,5.779,29.799,15.461l83.307,118.321   c7.009,9.955,4.624,23.708-5.332,30.716c-9.952,7.011-23.708,4.622-30.716-5.332l-55.009-78.13v402.796   c54.087,10.346,95.104,57.98,95.104,115.038c0,64.595-52.555,117.146-117.15,117.146c-57.058,0-104.692-41.013-115.04-95.102   h-440.04L1427.331,2066.643z"/></g><text x="0" y="4015" fill="#000000" font-size="5px" font-weight="bold" font-family="'Helvetica Neue', Helvetica, Arial-Unicode, Arial, Sans-serif">Created by bsd studio</text><text x="0" y="4020" fill="#000000" font-size="5px" font-weight="bold" font-family="'Helvetica Neue', Helvetica, Arial-Unicode, Arial, Sans-serif">from the Noun Project</text></svg>