<svg xmlns="http://www.w3.org/2000/svg" width="485" height="440" viewBox="0 0 485 440" version="1.1"><path d="M 218 21.790 C 216.075 22.842, 213.498 25.170, 212.274 26.963 C 202.010 41.999, 220.001 59.990, 235.037 49.726 C 244.385 43.344, 244.231 29.741, 234.730 22.648 C 230.887 19.779, 222.469 19.347, 218 21.790 M 186.500 33.934 C 131.778 43.872, 88.590 74.748, 60.310 124.149 C 53.786 135.546, 45.679 154.509, 45.672 158.392 C 45.663 163.378, 52.025 165.961, 55.176 162.250 C 55.993 161.287, 57.479 158.250, 58.479 155.500 C 59.479 152.750, 62.226 146.450, 64.582 141.500 C 88.641 90.966, 132.555 56.263, 185.331 46.078 C 191.255 44.935, 197.541 43.993, 199.301 43.985 C 204.145 43.962, 204.946 42.996, 204.711 37.465 L 204.500 32.500 200.500 32.309 C 198.300 32.204, 192 32.935, 186.500 33.934 M 247.691 32.702 C 247.424 33.141, 247.046 35.717, 246.852 38.426 L 246.500 43.351 257.243 45.079 C 304.697 52.712, 341.839 77.554, 372.729 122.320 C 375.535 126.386, 376.418 127, 379.456 127 C 382.078 127, 383.362 126.378, 384.581 124.516 C 386.127 122.157, 386.075 121.803, 383.528 117.457 C 375.528 103.807, 357.102 82.699, 343 71.030 C 327.499 58.203, 307.121 46.925, 288 40.591 C 273.609 35.824, 248.753 30.959, 247.691 32.702 M 202.235 91.497 C 165.898 98.084, 135.652 120.857, 119.881 153.500 C 99.208 196.293, 106.515 245.727, 138.733 281.025 C 146.026 289.014, 151.276 297.673, 154.576 307.148 L 157.484 315.500 157.801 350.250 C 157.975 369.362, 157.754 384.996, 157.309 384.991 C 156.864 384.986, 151.550 382.580, 145.500 379.645 C 118.273 366.437, 93.958 345.561, 76.904 320.750 C 71.049 312.231, 70.785 312, 66.924 312 C 63.641 312, 62.757 312.440, 61.794 314.553 C 60.433 317.539, 61.114 318.963, 69.896 331.500 C 77.569 342.453, 101.291 366.003, 113 374.290 C 136.950 391.242, 182.641 409.130, 198.635 407.817 C 202.480 407.502, 202.503 407.474, 203.044 402.500 C 203.728 396.224, 205.946 392.014, 210.585 388.190 C 224.412 376.793, 244.964 386.703, 244.994 404.781 C 244.998 406.621, 245.598 408.292, 246.360 408.584 C 248.032 409.226, 271.603 403.881, 282.500 400.388 C 337.875 382.639, 381.853 341.172, 402.082 287.634 L 405.432 278.768 402.660 276.384 C 401.136 275.073, 399.288 274, 398.555 274 C 395.958 274, 393.286 277.588, 390.595 284.691 C 377.565 319.072, 350.607 351.327, 318.407 371.063 C 303.270 380.340, 277.639 390.889, 264.250 393.352 L 261 393.950 261 376.065 L 261 358.181 253.750 357.005 C 243.052 355.270, 231.420 352.312, 223.500 349.312 C 213.263 345.435, 206.352 338.024, 190.180 313.579 C 182.931 302.623, 177 293.046, 177 292.298 C 177 291.550, 177.749 290.650, 178.665 290.298 C 180.753 289.497, 181.516 290.456, 194.486 310.195 C 213.393 338.970, 215.357 340.911, 230.585 345.873 C 247.515 351.390, 262.690 353.392, 288 353.449 C 313.047 353.506, 313.871 353.327, 319.809 346.564 C 324.885 340.784, 327.816 325.660, 328.710 300.641 C 329.453 279.837, 329.634 279.507, 342.194 276.074 C 355.251 272.506, 357 271.579, 357 268.230 C 357 266.441, 351.821 255.778, 343.253 239.929 L 329.506 214.500 329.434 194 C 329.367 175.063, 329.158 172.743, 326.693 163.571 C 315.904 123.432, 284.911 97.349, 240.500 91.035 C 230.879 89.667, 211.008 89.907, 202.235 91.497 M 390.598 123.500 L 383.859 131 376.180 131.014 C 367.480 131.029, 364 131.709, 364 133.392 C 364 134.599, 393.042 154, 394.848 154 C 395.414 154, 396.138 152.088, 396.457 149.750 C 397.467 142.339, 399.981 119.571, 399.991 117.750 C 400.008 114.390, 397.288 116.055, 390.598 123.500 M 214.918 140.189 C 206.241 152.613, 206.551 151.980, 208.295 153.724 C 210.287 155.716, 211.247 154.999, 216.042 147.938 C 218.260 144.672, 220.283 142, 220.537 142 C 220.792 142, 221 155.736, 221 172.525 L 221 203.050 218.250 204.088 C 214.468 205.517, 210.030 209.854, 208.363 213.750 L 206.973 217 173.237 216.948 C 141.186 216.898, 139.624 216.810, 141.985 215.198 C 143.352 214.264, 145.827 212.290, 147.485 210.810 C 150.282 208.315, 150.381 208, 148.863 206.459 C 147.339 204.913, 146.660 205.193, 139.098 210.492 C 130.629 216.426, 128.593 218.776, 129.614 221.436 C 130.526 223.813, 145.749 234.195, 147.755 233.809 C 150.932 233.197, 149.569 230.154, 144.503 226.553 L 139.506 223 173.552 223 L 207.598 223 208.854 226.472 C 210.393 230.728, 216.309 235.780, 220.724 236.608 C 227.959 237.965, 235.964 233.839, 239.551 226.901 C 243.375 219.506, 239.628 209.203, 231.557 204.921 L 227 202.503 227 172.193 C 227 152.143, 227.340 142.092, 228.005 142.503 C 228.558 142.845, 230.847 145.829, 233.092 149.136 C 235.888 153.253, 237.645 154.966, 238.669 154.574 C 239.491 154.258, 240.352 154, 240.582 154 C 242.234 154, 240.002 149.653, 233.927 141.034 C 224.477 127.628, 223.714 127.594, 214.918 140.189 M 415.245 166.250 C 413.848 167.998, 411.785 180.749, 412.524 183.075 C 413.430 185.930, 417.764 186.681, 420.062 184.381 C 422.503 181.938, 423.939 168.836, 422.019 166.523 C 420.491 164.682, 416.624 164.526, 415.245 166.250 M 381.200 173.200 C 379.309 175.091, 379.739 176.877, 383.730 183.700 C 387.877 190.789, 390.781 192.413, 394.040 189.464 C 396.807 186.960, 396.514 185.341, 392.016 178.250 C 388.681 172.994, 387.602 172, 385.225 172 C 383.671 172, 381.860 172.540, 381.200 173.200 M 441.279 186.206 C 435.248 191.167, 433.935 194.166, 436.536 197.040 C 439.171 199.951, 440.952 199.489, 447.290 194.250 C 452.492 189.950, 453.011 189.169, 452.768 186 C 452.532 182.915, 452.145 182.465, 449.500 182.206 C 447.195 181.980, 445.290 182.907, 441.279 186.206 M 41.302 187.103 C 34.778 189.611, 27.217 196.334, 23.813 202.652 C 9.508 229.210, 31.191 259.097, 61.470 254.557 C 63.962 254.183, 65.999 253.568, 65.998 253.189 C 65.997 252.810, 63.995 251.236, 61.550 249.691 C 55.714 246.004, 51.303 240.873, 48.101 234.046 C 45.939 229.435, 45.500 227.067, 45.500 220 C 45.500 212.885, 45.934 210.575, 48.160 205.825 C 51.255 199.224, 57.420 192.166, 62.465 189.449 C 64.409 188.402, 66 187.250, 66 186.889 C 66 184.278, 48.251 184.431, 41.302 187.103 M 401 196.592 C 396.454 198.558, 391.371 203.476, 388.692 208.500 C 385.356 214.756, 385.638 225.034, 389.317 231.292 C 397.660 245.487, 416.299 248.094, 428.009 236.704 C 435.251 229.658, 437.144 218.088, 432.623 208.500 C 429.813 202.542, 427.048 199.826, 421 197.084 C 415.569 194.622, 406.094 194.389, 401 196.592 M 360.050 199.440 C 359.393 200.231, 359.001 202.120, 359.178 203.636 C 359.452 205.983, 360.386 206.735, 365.464 208.696 C 374.641 212.241, 379 211.509, 379 206.422 C 379 203.688, 377.914 202.875, 370.661 200.174 C 363.816 197.625, 361.679 197.477, 360.050 199.440 M 219.378 209.398 C 215.175 211.280, 213 214.653, 213 219.288 C 213 226.756, 216.982 230.943, 224.115 230.978 C 229.829 231.005, 233.507 228.378, 235.074 223.148 C 237.838 213.921, 228.178 205.458, 219.378 209.398 M 446.050 215.440 C 445.393 216.231, 445.001 218.144, 445.178 219.690 L 445.500 222.500 454.695 222.787 C 463.248 223.054, 463.971 222.923, 465.048 220.910 C 465.892 219.334, 465.912 218.103, 465.124 216.374 C 464.111 214.150, 463.513 214, 455.644 214 C 449.555 214, 446.916 214.396, 446.050 215.440 M 367.733 230.373 C 364.561 231.601, 361.240 233.331, 360.353 234.218 C 358.256 236.315, 359.278 240.636, 362.081 241.526 C 364.076 242.159, 375.045 238.791, 377.750 236.715 C 379.723 235.200, 379.279 230.220, 377.066 229.035 C 374.602 227.717, 374.593 227.718, 367.733 230.373 M 437.200 240.200 C 434.559 242.841, 435.921 245.861, 442.052 250.964 C 445.380 253.734, 448.560 256, 449.118 256 C 451.803 256, 454 253.759, 454 251.020 C 454 248.697, 452.873 247.191, 448.408 243.555 C 442.791 238.979, 439.428 237.972, 437.200 240.200 M 389.385 248.765 C 387.376 250.089, 382 260.603, 382 263.208 C 382 266.496, 384.319 268.388, 387.399 267.615 C 389.057 267.199, 390.960 264.976, 393.412 260.590 C 397.505 253.271, 397.717 251.958, 395.171 249.655 C 393.217 247.887, 391.191 247.575, 389.385 248.765 M 415.041 253.766 C 412.949 255.460, 412.909 255.818, 414.055 262.516 C 415.600 271.543, 416.414 273, 419.913 273 C 424.713 273, 425.463 271.055, 423.989 262.433 C 423.043 256.904, 422.150 254.518, 420.628 253.452 C 417.998 251.610, 417.681 251.628, 415.041 253.766 M 51.552 286.250 C 51.011 288.005, 47.986 316.911, 47.994 320.250 C 47.997 321.762, 48.451 323, 49.003 323 C 49.554 323, 53.212 319.625, 57.130 315.500 C 64.226 308.030, 64.275 308, 69.488 308 C 77.210 308, 84.001 306.883, 83.993 305.614 C 83.984 304.409, 54.831 285, 53.029 285 C 52.429 285, 51.764 285.563, 51.552 286.250 M 218.001 388.123 C 211.822 390.587, 208 396.579, 208 403.802 C 208 415.899, 220.328 423.408, 231.394 418.051 C 237.424 415.132, 240.286 410.449, 240.286 403.500 C 240.286 399.797, 239.628 397.134, 238.105 394.670 C 234.315 388.537, 224.763 385.427, 218.001 388.123" stroke="none" fill="#fffcfc" fill-rule="evenodd"/><path d="" stroke="none" fill="#fcfcfc" fill-rule="evenodd"/></svg>