<svg xmlns="http://www.w3.org/2000/svg" xmlns:xlink="http://www.w3.org/1999/xlink" version="1.1" width="843px" height="386px" viewBox="0 0 843 386" >
<style>
    <!--
        The top path emulates an ECG trace. The bottom path emulates an atrial-line blood pressure trace.

        The two paths have distinct stroke-dashoffset settings so that the traces appear to reflect concurrent measurements,
        despite the pathlengths being much different. The settings were reached experimentally.
    -->
    path.ecg {
        fill: transparent;
        stroke-miterlimit: 10;
        stroke-width: 8;
        stroke: #33cc33; <!-- lime green (approximate); web safe color -->
        stroke-opacity: 1;
    }

    path.bp {
        fill: transparent;
        stroke-miterlimit: 10;
        stroke-width: 8;
        stroke: #cc3333; <!-- persian red (approximate); web safe color -->
        stroke-opacity: 1;
   }
</style>
<path class="ecg" d="
    M 2 91
    L 25.03 92.29
    Q 35 93 36.18 83.07
    L 38.82 60.93
    Q 40 51 40.62 41.02
    L 42.38 12.98
    Q 43 3 43.8 12.97
    L 51.2 105.03
    Q 52 115 53.87 105.18
    L 54.94 99.59
    Q 56 94 58.5 91.5
    L 59.75 90.25
    Q 61 89 65 87.5
    L 67 86.75
    Q 69 86 75.5 87
    L 78.75 87.5
    Q 82 88 85.5 83
    L 87.25 80.5
    Q 89 78 92.5 76.5
    L 94.25 75.75
    Q 96 75 100.5 75
    L 102.75 75
    Q 105 75 112.76 81.31
    L 116.88 84.65
    Q 121 88 131 88
    L 204 88
    Q 214 88 221.5 85
    L 225.25 83.5
    Q 229 82 233.5 80.5
    L 235.75 79.75
    Q 238 79 242 79
    L 244 79
    Q 246 79 250.5 82
    L 252.75 83.5
    Q 255 85 260.5 87
    L 263.25 88
    Q 266 89 276 89
    L 282.5 89
    Q 289 89 289.93 79.04
    L 296.07 12.96
    Q 297 3 297.81 12.97
    L 305.19 104.03
    Q 306 114 307.96 104.19
    L 308.98 99.1
    Q 310 94 310.5 91.5
    L 310.75 90.25
    Q 311 89 313 87.5
    L 314 86.75
    Q 315 86 319.5 85
    L 321.75 84.5
    Q 324 84 330.5 84
    L 333.75 84
    Q 337 84 340 80
    L 341.5 78
    Q 343 76 347.5 73.5
    L 349.75 72.25
    Q 352 71 357 72
    L 359.5 72.5
    Q 362 73 369 79
    L 372.5 82
    Q 376 85 385.98 85.65
    L 412.02 87.35
    Q 422 88 432 88
    L 460 88
    Q 470 88 477 84.5
    L 480.5 82.75
    Q 484 81 487.5 79.5
    L 489.25 78.75
    Q 491 78 495 78.5
    L 497 78.75
    Q 499 79 503.5 82.5
    L 505.75 84.25
    Q 508 86 511.5 87.5
    L 513.25 88.25
    Q 515 89 524.99 89.38
    L 533 89.69
    Q 541 90 541.91 80.04
    L 548.09 11.96
    Q 549 2 549.73 11.97
    L 556.27 102.03
    Q 557 112 559 103.5
    L 560 99.25
    Q 561 95 562.5 91
    L 563.25 89
    Q 564 87 568 86
    L 570 85.5
    Q 572 85 579.5 85
    L 583.25 85
    Q 587 85 590 81.5
    L 591.5 79.75
    Q 593 78 597.5 74.5
    L 599.75 72.75
    Q 602 71 606.5 72
    L 608.75 72.5
    Q 611 73 618.76 79.31
    L 622.88 82.65
    Q 627 86 637 85.92
    L 840 85
    " 
/>
<path class="bp" d="
    M 2 317
    L 33.27 342.66
    Q 41 349 48.88 355.15
    L 74.12 374.85
    Q 82 381 82.44 371.01
    L 87.56 255.99
    Q 88 246 88.4 236.01
    L 90.6 180.99
    Q 91 171 91.81 161.03
    L 93.19 143.97
    Q 94 134 96.5 126.5
    L 97.75 122.75
    Q 99 119 102.5 114
    L 104.25 111.5
    Q 106 109 111 106.5
    L 113.5 105.25
    Q 116 104 120 107
    L 122 108.5
    Q 124 110 128.71 118.82
    L 135.29 131.18
    Q 140 140 143.5 145
    L 145.25 147.5
    Q 147 150 155.07 155.9
    L 164.93 163.1
    Q 173 169 175.12 178.77
    L 176.56 185.39
    Q 178 192 179 199
    L 179.5 202.5
    Q 180 206 180.5 212.5
    L 180.75 215.75
    Q 181 219 181.34 228.99
    L 181.67 238.5
    Q 182 248 185.5 239
    L 187.25 234.5
    Q 189 230 193.5 230.5
    L 195.75 230.75
    Q 198 231 202.5 237.5
    L 204.75 240.75
    Q 207 244 210.94 253.19
    L 213.47 259.1
    Q 216 265 220.86 273.74
    L 223.43 278.37
    Q 226 283 232 291
    L 235 295
    Q 238 299 244.87 306.27
    L 249.93 311.64
    Q 255 317 262.71 323.37
    L 270.35 329.68
    Q 278 336 285.77 342.3
    L 328.23 376.7
    Q 336 383 336.34 373.01
    L 339.66 276.99
    Q 340 267 340.38 257.01
    L 342.62 197.99
    Q 343 188 343.83 178.03
    L 346.17 149.97
    Q 347 140 348.5 132
    L 349.25 128
    Q 350 124 353.5 117.5
    L 355.25 114.25
    Q 357 111 362.5 107.5
    L 365.25 105.75
    Q 368 104 373.5 107.5
    L 376.25 109.25
    Q 379 111 383.5 119
    L 385.75 123
    Q 388 127 390.5 133
    L 391.75 136
    Q 393 139 396.5 144.5
    L 398.25 147.25
    Q 400 150 408.32 155.55
    L 414.66 159.77
    Q 421 164 424.5 168
    L 426.25 170
    Q 428 172 429.64 181.86
    L 432.36 198.14
    Q 434 208 434.5 217.99
    L 434.75 222.99
    Q 435 228 435 237.5
    L 435 242.25
    Q 435 247 438 241.5
    L 439.5 238.75
    Q 441 236 442 234
    L 442.5 233
    Q 443 232 445.5 231.5
    L 446.75 231.25
    Q 448 231 451 232
    L 452.5 232.5
    Q 454 233 456 235.5
    L 457 236.75
    Q 458 238 460 243
    L 461 245.5
    Q 462 248 465.5 255.5
    L 467.25 259.25
    Q 469 263 472.5 269.5
    L 474.25 272.75
    Q 476 276 480 282.5
    L 482 285.75
    Q 484 289 488.5 295
    L 490.75 298
    Q 493 301 499.5 307.5
    L 502.75 310.75
    Q 506 314 513.63 320.46
    L 537.37 340.54
    Q 545 347 552.83 353.23
    L 581.17 375.77
    Q 589 382 589.35 372.01
    L 592.65 276.99
    Q 593 267 593.37 257.01
    L 595.63 195.99
    Q 596 186 596.7 176.02
    L 598.3 152.98
    Q 599 143 601 133.5
    L 602 128.75
    Q 603 124 607 117.5
    L 609 114.25
    Q 611 111 616 107.5
    L 618.5 105.75
    Q 621 104 626.5 108
    L 629.25 110
    Q 632 112 636.5 120
    L 638.75 124
    Q 641 128 643.5 134
    L 644.75 137
    Q 646 140 650 145
    L 652 147.5
    Q 654 150 659.5 154
    L 662.25 156
    Q 665 158 670.5 162.5
    L 673.25 164.75
    Q 676 167 679 171.5
    L 680.5 173.75
    Q 682 176 683.5 185.89
    L 685.5 199.11
    Q 687 209 687.26 219
    L 687.74 237
    Q 688 247 690.5 239.5
    L 691.75 235.75
    Q 693 232 696.5 231
    L 698.25 230.5
    Q 700 230 704 232.5
    L 706 233.75
    Q 708 235 711 240.5
    L 712.5 243.25
    Q 714 246 716.5 252.5
    L 717.75 255.75
    Q 719 259 722.5 265
    L 724.25 268
    Q 726 271 729 276.5
    L 730.5 279.25
    Q 732 282 735.5 287.5
    L 737.25 290.25
    Q 739 293 743.5 298
    L 745.75 300.5
    Q 748 303 754 309.5
    L 757 312.75
    Q 760 316 767.67 322.42
    L 789.33 340.58
    Q 797 347 805.02 352.97
    L 840 379
    "
/>
</svg>